<mxfile host="Electron" agent="Mozilla/5.0 (Windows NT 10.0; Win64; x64) AppleWebKit/537.36 (KHTML, like Gecko) draw.io/26.0.16 Chrome/132.0.6834.196 Electron/34.2.0 Safari/537.36" version="26.0.16">
  <diagram name="Page-1" id="2YBvvXClWsGukQMizWep">
    <mxGraphModel dx="1160" dy="1714" grid="1" gridSize="10" guides="1" tooltips="1" connect="1" arrows="1" fold="1" page="1" pageScale="1" pageWidth="850" pageHeight="1100" math="0" shadow="0">
      <root>
        <mxCell id="0" />
        <mxCell id="1" parent="0" />
        <mxCell id="aM9ryv3xv72pqoxQDRHE-1" value="&amp;nbsp;Etudiant" style="shape=umlLifeline;perimeter=lifelinePerimeter;whiteSpace=wrap;html=1;container=0;dropTarget=0;collapsible=0;recursiveResize=0;outlineConnect=0;portConstraint=eastwest;newEdgeStyle={&quot;edgeStyle&quot;:&quot;elbowEdgeStyle&quot;,&quot;elbow&quot;:&quot;vertical&quot;,&quot;curved&quot;:0,&quot;rounded&quot;:0};" parent="1" vertex="1">
          <mxGeometry x="40" y="40" width="100" height="680" as="geometry" />
        </mxCell>
        <mxCell id="aM9ryv3xv72pqoxQDRHE-4" value="" style="html=1;points=[];perimeter=orthogonalPerimeter;outlineConnect=0;targetShapes=umlLifeline;portConstraint=eastwest;newEdgeStyle={&quot;edgeStyle&quot;:&quot;elbowEdgeStyle&quot;,&quot;elbow&quot;:&quot;vertical&quot;,&quot;curved&quot;:0,&quot;rounded&quot;:0};" parent="aM9ryv3xv72pqoxQDRHE-1" vertex="1">
          <mxGeometry x="45" y="130" width="10" height="50" as="geometry" />
        </mxCell>
        <mxCell id="aM9ryv3xv72pqoxQDRHE-5" value="Page d&#39;accuiel" style="shape=umlLifeline;perimeter=lifelinePerimeter;whiteSpace=wrap;html=1;container=0;dropTarget=0;collapsible=0;recursiveResize=0;outlineConnect=0;portConstraint=eastwest;newEdgeStyle={&quot;edgeStyle&quot;:&quot;elbowEdgeStyle&quot;,&quot;elbow&quot;:&quot;vertical&quot;,&quot;curved&quot;:0,&quot;rounded&quot;:0};" parent="1" vertex="1">
          <mxGeometry x="310" y="40" width="100" height="680" as="geometry" />
        </mxCell>
        <mxCell id="aM9ryv3xv72pqoxQDRHE-6" value="" style="html=1;points=[];perimeter=orthogonalPerimeter;outlineConnect=0;targetShapes=umlLifeline;portConstraint=eastwest;newEdgeStyle={&quot;edgeStyle&quot;:&quot;elbowEdgeStyle&quot;,&quot;elbow&quot;:&quot;vertical&quot;,&quot;curved&quot;:0,&quot;rounded&quot;:0};" parent="aM9ryv3xv72pqoxQDRHE-5" vertex="1">
          <mxGeometry x="45" y="70" width="10" height="30" as="geometry" />
        </mxCell>
        <mxCell id="aM9ryv3xv72pqoxQDRHE-7" value="demande de création de compte" style="html=1;verticalAlign=bottom;endArrow=block;edgeStyle=elbowEdgeStyle;elbow=horizontal;curved=0;rounded=0;" parent="1" target="aM9ryv3xv72pqoxQDRHE-6" edge="1">
          <mxGeometry relative="1" as="geometry">
            <mxPoint x="95" y="120" as="sourcePoint" />
            <Array as="points">
              <mxPoint x="180" y="120" />
            </Array>
          </mxGeometry>
        </mxCell>
        <mxCell id="aM9ryv3xv72pqoxQDRHE-8" value="succées" style="html=1;verticalAlign=bottom;endArrow=open;dashed=1;endSize=8;edgeStyle=elbowEdgeStyle;elbow=horizontal;curved=0;rounded=0;" parent="1" target="YwEIRxyx2jZI9IvQ58Sh-33" edge="1">
          <mxGeometry relative="1" as="geometry">
            <mxPoint x="560" y="400" as="targetPoint" />
            <Array as="points">
              <mxPoint x="600" y="400" />
            </Array>
            <mxPoint x="689.5" y="400" as="sourcePoint" />
          </mxGeometry>
        </mxCell>
        <mxCell id="aM9ryv3xv72pqoxQDRHE-9" value="demande de saisir des information" style="html=1;verticalAlign=bottom;endArrow=block;edgeStyle=elbowEdgeStyle;elbow=vertical;curved=0;rounded=0;" parent="1" source="YwEIRxyx2jZI9IvQ58Sh-32" target="aM9ryv3xv72pqoxQDRHE-4" edge="1">
          <mxGeometry relative="1" as="geometry">
            <mxPoint x="485" y="170" as="sourcePoint" />
            <Array as="points">
              <mxPoint x="300" y="170" />
            </Array>
            <mxPoint x="150" y="170" as="targetPoint" />
          </mxGeometry>
        </mxCell>
        <mxCell id="YwEIRxyx2jZI9IvQ58Sh-6" value="" style="endArrow=none;html=1;rounded=0;" parent="1" edge="1">
          <mxGeometry width="50" height="50" relative="1" as="geometry">
            <mxPoint y="770" as="sourcePoint" />
            <mxPoint as="targetPoint" />
          </mxGeometry>
        </mxCell>
        <mxCell id="YwEIRxyx2jZI9IvQ58Sh-7" value="" style="endArrow=none;html=1;rounded=0;" parent="1" edge="1">
          <mxGeometry width="50" height="50" relative="1" as="geometry">
            <mxPoint x="800" as="sourcePoint" />
            <mxPoint as="targetPoint" />
          </mxGeometry>
        </mxCell>
        <mxCell id="YwEIRxyx2jZI9IvQ58Sh-8" value="" style="endArrow=none;html=1;rounded=0;exitX=-0.018;exitY=0.984;exitDx=0;exitDy=0;exitPerimeter=0;" parent="1" edge="1">
          <mxGeometry width="50" height="50" relative="1" as="geometry">
            <mxPoint x="-0.8999999999998636" y="29.519999999999982" as="sourcePoint" />
            <mxPoint x="160" y="30" as="targetPoint" />
          </mxGeometry>
        </mxCell>
        <mxCell id="YwEIRxyx2jZI9IvQ58Sh-9" value="" style="endArrow=none;html=1;rounded=0;" parent="1" edge="1">
          <mxGeometry width="50" height="50" relative="1" as="geometry">
            <mxPoint x="170" y="20" as="sourcePoint" />
            <mxPoint x="170" as="targetPoint" />
          </mxGeometry>
        </mxCell>
        <mxCell id="YwEIRxyx2jZI9IvQ58Sh-10" value="" style="endArrow=none;html=1;rounded=0;" parent="1" edge="1">
          <mxGeometry width="50" height="50" relative="1" as="geometry">
            <mxPoint x="170" y="20" as="sourcePoint" />
            <mxPoint x="170" y="20" as="targetPoint" />
            <Array as="points">
              <mxPoint x="160" y="30" />
            </Array>
          </mxGeometry>
        </mxCell>
        <mxCell id="YwEIRxyx2jZI9IvQ58Sh-12" value="" style="endArrow=none;html=1;rounded=0;" parent="1" edge="1">
          <mxGeometry width="50" height="50" relative="1" as="geometry">
            <mxPoint y="30" as="sourcePoint" />
            <mxPoint y="30" as="targetPoint" />
          </mxGeometry>
        </mxCell>
        <mxCell id="YwEIRxyx2jZI9IvQ58Sh-17" value="sd création de compte" style="text;html=1;align=center;verticalAlign=middle;whiteSpace=wrap;rounded=0;" parent="1" vertex="1">
          <mxGeometry width="170" height="30" as="geometry" />
        </mxCell>
        <mxCell id="YwEIRxyx2jZI9IvQ58Sh-19" style="edgeStyle=elbowEdgeStyle;rounded=0;orthogonalLoop=1;jettySize=auto;html=1;elbow=vertical;curved=0;" parent="1" target="YwEIRxyx2jZI9IvQ58Sh-33" edge="1">
          <mxGeometry relative="1" as="geometry">
            <mxPoint x="95" y="219.99888888888893" as="sourcePoint" />
            <mxPoint x="485" y="219.99888888888893" as="targetPoint" />
          </mxGeometry>
        </mxCell>
        <mxCell id="YwEIRxyx2jZI9IvQ58Sh-20" value="" style="endArrow=none;html=1;rounded=0;" parent="1" edge="1">
          <mxGeometry width="50" height="50" relative="1" as="geometry">
            <mxPoint x="800" y="770" as="sourcePoint" />
            <mxPoint x="800" as="targetPoint" />
          </mxGeometry>
        </mxCell>
        <mxCell id="YwEIRxyx2jZI9IvQ58Sh-23" value="ceate demande&amp;nbsp;" style="html=1;verticalAlign=bottom;endArrow=open;dashed=1;endSize=8;edgeStyle=elbowEdgeStyle;elbow=vertical;curved=0;rounded=0;" parent="1" edge="1">
          <mxGeometry relative="1" as="geometry">
            <mxPoint x="489" y="140.2" as="targetPoint" />
            <Array as="points" />
            <mxPoint x="362" y="140.19888888888886" as="sourcePoint" />
          </mxGeometry>
        </mxCell>
        <mxCell id="YwEIRxyx2jZI9IvQ58Sh-28" value="Saisie des information demandé" style="text;html=1;align=center;verticalAlign=middle;whiteSpace=wrap;rounded=0;" parent="1" vertex="1">
          <mxGeometry x="150" y="190" width="190" height="30" as="geometry" />
        </mxCell>
        <mxCell id="YwEIRxyx2jZI9IvQ58Sh-32" value="Page du formulaire" style="shape=umlLifeline;perimeter=lifelinePerimeter;whiteSpace=wrap;html=1;container=0;dropTarget=0;collapsible=0;recursiveResize=0;outlineConnect=0;portConstraint=eastwest;newEdgeStyle={&quot;edgeStyle&quot;:&quot;elbowEdgeStyle&quot;,&quot;elbow&quot;:&quot;vertical&quot;,&quot;curved&quot;:0,&quot;rounded&quot;:0};size=40;" parent="1" vertex="1">
          <mxGeometry x="440" y="40" width="110" height="680" as="geometry" />
        </mxCell>
        <mxCell id="YwEIRxyx2jZI9IvQ58Sh-33" value="" style="html=1;points=[];perimeter=orthogonalPerimeter;outlineConnect=0;targetShapes=umlLifeline;portConstraint=eastwest;newEdgeStyle={&quot;edgeStyle&quot;:&quot;elbowEdgeStyle&quot;,&quot;elbow&quot;:&quot;vertical&quot;,&quot;curved&quot;:0,&quot;rounded&quot;:0};" parent="YwEIRxyx2jZI9IvQ58Sh-32" vertex="1">
          <mxGeometry x="50" y="180" width="10" height="320" as="geometry" />
        </mxCell>
        <mxCell id="YwEIRxyx2jZI9IvQ58Sh-35" value="" style="html=1;points=[];perimeter=orthogonalPerimeter;outlineConnect=0;targetShapes=umlLifeline;portConstraint=eastwest;newEdgeStyle={&quot;edgeStyle&quot;:&quot;elbowEdgeStyle&quot;,&quot;elbow&quot;:&quot;vertical&quot;,&quot;curved&quot;:0,&quot;rounded&quot;:0};" parent="YwEIRxyx2jZI9IvQ58Sh-32" vertex="1">
          <mxGeometry x="50" y="100" width="10" height="30" as="geometry" />
        </mxCell>
        <mxCell id="YwEIRxyx2jZI9IvQ58Sh-37" value="" style="endArrow=classic;html=1;rounded=0;" parent="1" target="YwEIRxyx2jZI9IvQ58Sh-33" edge="1">
          <mxGeometry width="50" height="50" relative="1" as="geometry">
            <mxPoint x="500" y="240" as="sourcePoint" />
            <mxPoint x="550" y="190" as="targetPoint" />
            <Array as="points">
              <mxPoint x="530" y="240" />
              <mxPoint x="560" y="240" />
              <mxPoint x="560" y="250" />
              <mxPoint x="560" y="280" />
              <mxPoint x="530" y="280" />
            </Array>
          </mxGeometry>
        </mxCell>
        <mxCell id="YwEIRxyx2jZI9IvQ58Sh-39" value="Vérification des données" style="text;html=1;align=center;verticalAlign=middle;whiteSpace=wrap;rounded=0;" parent="1" vertex="1">
          <mxGeometry x="500" y="240" width="90" height="30" as="geometry" />
        </mxCell>
        <mxCell id="YwEIRxyx2jZI9IvQ58Sh-43" value="" style="endArrow=none;html=1;rounded=0;elbow=vertical;" parent="1" edge="1">
          <mxGeometry width="50" height="50" relative="1" as="geometry">
            <mxPoint x="29" y="320" as="sourcePoint" />
            <mxPoint x="70" y="290" as="targetPoint" />
            <Array as="points">
              <mxPoint x="60" y="320" />
              <mxPoint x="70" y="310" />
            </Array>
          </mxGeometry>
        </mxCell>
        <mxCell id="YwEIRxyx2jZI9IvQ58Sh-44" value="alt" style="text;html=1;align=center;verticalAlign=middle;whiteSpace=wrap;rounded=0;fillColor=none;strokeColor=none;" parent="1" vertex="1">
          <mxGeometry x="30" y="290" width="40" height="30" as="geometry" />
        </mxCell>
        <mxCell id="YwEIRxyx2jZI9IvQ58Sh-50" value="[valide]" style="text;html=1;align=center;verticalAlign=middle;whiteSpace=wrap;rounded=0;fillColor=default;" parent="1" vertex="1">
          <mxGeometry x="40" y="320" width="60" height="30" as="geometry" />
        </mxCell>
        <mxCell id="YwEIRxyx2jZI9IvQ58Sh-55" value="" style="endArrow=classic;html=1;rounded=0;" parent="1" target="YwEIRxyx2jZI9IvQ58Sh-64" edge="1">
          <mxGeometry width="50" height="50" relative="1" as="geometry">
            <mxPoint x="500" y="328.9" as="sourcePoint" />
            <mxPoint x="645" y="330" as="targetPoint" />
          </mxGeometry>
        </mxCell>
        <mxCell id="YwEIRxyx2jZI9IvQ58Sh-56" value="&amp;nbsp;l&#39;envoi des données" style="text;html=1;align=center;verticalAlign=middle;whiteSpace=wrap;rounded=0;" parent="1" vertex="1">
          <mxGeometry x="510" y="300" width="140" height="30" as="geometry" />
        </mxCell>
        <mxCell id="YwEIRxyx2jZI9IvQ58Sh-63" value="Systeme de base des données" style="shape=umlLifeline;perimeter=lifelinePerimeter;whiteSpace=wrap;html=1;container=0;dropTarget=0;collapsible=0;recursiveResize=0;outlineConnect=0;portConstraint=eastwest;newEdgeStyle={&quot;edgeStyle&quot;:&quot;elbowEdgeStyle&quot;,&quot;elbow&quot;:&quot;vertical&quot;,&quot;curved&quot;:0,&quot;rounded&quot;:0};size=50;" parent="1" vertex="1">
          <mxGeometry x="610" y="30" width="160" height="690" as="geometry" />
        </mxCell>
        <mxCell id="YwEIRxyx2jZI9IvQ58Sh-64" value="" style="html=1;points=[];perimeter=orthogonalPerimeter;outlineConnect=0;targetShapes=umlLifeline;portConstraint=eastwest;newEdgeStyle={&quot;edgeStyle&quot;:&quot;elbowEdgeStyle&quot;,&quot;elbow&quot;:&quot;vertical&quot;,&quot;curved&quot;:0,&quot;rounded&quot;:0};" parent="YwEIRxyx2jZI9IvQ58Sh-63" vertex="1">
          <mxGeometry x="75" y="300" width="10" height="80" as="geometry" />
        </mxCell>
        <mxCell id="YwEIRxyx2jZI9IvQ58Sh-66" value="" style="endArrow=classic;html=1;rounded=0;" parent="YwEIRxyx2jZI9IvQ58Sh-63" source="YwEIRxyx2jZI9IvQ58Sh-64" target="YwEIRxyx2jZI9IvQ58Sh-64" edge="1">
          <mxGeometry width="50" height="50" relative="1" as="geometry">
            <mxPoint x="60" y="310" as="sourcePoint" />
            <mxPoint x="60" y="340" as="targetPoint" />
            <Array as="points">
              <mxPoint x="110" y="310" />
              <mxPoint x="110" y="325" />
              <mxPoint x="110" y="340" />
            </Array>
          </mxGeometry>
        </mxCell>
        <mxCell id="YwEIRxyx2jZI9IvQ58Sh-68" value="stocage des données" style="text;html=1;align=center;verticalAlign=middle;whiteSpace=wrap;rounded=0;" parent="YwEIRxyx2jZI9IvQ58Sh-63" vertex="1">
          <mxGeometry x="70" y="310" width="90" height="30" as="geometry" />
        </mxCell>
        <mxCell id="YwEIRxyx2jZI9IvQ58Sh-72" value="" style="endArrow=classic;html=1;rounded=0;" parent="1" edge="1">
          <mxGeometry width="50" height="50" relative="1" as="geometry">
            <mxPoint x="500" y="500" as="sourcePoint" />
            <mxPoint x="500" y="540" as="targetPoint" />
            <Array as="points">
              <mxPoint x="530" y="500" />
              <mxPoint x="560" y="500" />
              <mxPoint x="560" y="510" />
              <mxPoint x="560" y="540" />
              <mxPoint x="530" y="540" />
            </Array>
          </mxGeometry>
        </mxCell>
        <mxCell id="YwEIRxyx2jZI9IvQ58Sh-73" value="Compte créé avec succées" style="html=1;verticalAlign=bottom;endArrow=open;dashed=1;endSize=8;edgeStyle=elbowEdgeStyle;elbow=horizontal;curved=0;rounded=0;" parent="1" target="aM9ryv3xv72pqoxQDRHE-1" edge="1">
          <mxGeometry relative="1" as="geometry">
            <mxPoint x="300" y="430" as="targetPoint" />
            <Array as="points">
              <mxPoint x="400" y="430" />
            </Array>
            <mxPoint x="489.5" y="430" as="sourcePoint" />
          </mxGeometry>
        </mxCell>
        <mxCell id="YwEIRxyx2jZI9IvQ58Sh-74" value="reinistialisé la demande" style="text;html=1;align=center;verticalAlign=middle;whiteSpace=wrap;rounded=0;" parent="1" vertex="1">
          <mxGeometry x="510" y="500" width="80" height="30" as="geometry" />
        </mxCell>
        <mxCell id="YwEIRxyx2jZI9IvQ58Sh-51" value="[non valide]" style="text;html=1;align=center;verticalAlign=middle;whiteSpace=wrap;rounded=0;fillColor=default;" parent="1" vertex="1">
          <mxGeometry x="55" y="450" width="70" height="30" as="geometry" />
        </mxCell>
        <mxCell id="YwEIRxyx2jZI9IvQ58Sh-80" value="Données non complètes ou non valides" style="html=1;verticalAlign=bottom;endArrow=open;dashed=1;endSize=8;edgeStyle=elbowEdgeStyle;elbow=horizontal;curved=0;rounded=0;" parent="1" edge="1">
          <mxGeometry relative="1" as="geometry">
            <mxPoint x="90" y="490" as="targetPoint" />
            <Array as="points">
              <mxPoint x="401" y="490" />
            </Array>
            <mxPoint x="490.5" y="490" as="sourcePoint" />
          </mxGeometry>
        </mxCell>
        <mxCell id="YwEIRxyx2jZI9IvQ58Sh-82" value="" style="endArrow=none;html=1;rounded=0;exitX=0;exitY=0.5;exitDx=0;exitDy=0;entryX=1;entryY=0.5;entryDx=0;entryDy=0;" parent="1" target="YwEIRxyx2jZI9IvQ58Sh-81" edge="1">
          <mxGeometry width="50" height="50" relative="1" as="geometry">
            <mxPoint x="30" y="450" as="sourcePoint" />
            <mxPoint x="770" y="450" as="targetPoint" />
          </mxGeometry>
        </mxCell>
        <mxCell id="YwEIRxyx2jZI9IvQ58Sh-81" value="" style="rounded=0;whiteSpace=wrap;html=1;fillColor=none;" parent="1" vertex="1">
          <mxGeometry x="30" y="290" width="730" height="320" as="geometry" />
        </mxCell>
        <mxCell id="YwEIRxyx2jZI9IvQ58Sh-83" value="Diagramme de séquence, pour la création de compte pour l&#39;étudiant." style="text;html=1;align=left;verticalAlign=middle;whiteSpace=wrap;rounded=0;fillColor=default;" parent="1" vertex="1">
          <mxGeometry x="-5" y="-40" width="375" height="30" as="geometry" />
        </mxCell>
        <mxCell id="YwEIRxyx2jZI9IvQ58Sh-84" value="" style="endArrow=none;html=1;rounded=0;" parent="1" edge="1">
          <mxGeometry width="50" height="50" relative="1" as="geometry">
            <mxPoint y="770" as="sourcePoint" />
            <mxPoint x="800" y="770" as="targetPoint" />
          </mxGeometry>
        </mxCell>
      </root>
    </mxGraphModel>
  </diagram>
</mxfile>
